<mxfile host="app.diagrams.net" agent="Mozilla/5.0 (Windows NT 10.0; Win64; x64) AppleWebKit/537.36 (KHTML, like Gecko) Chrome/128.0.0.0 Safari/537.36" version="24.7.8">
  <diagram name="ページ1" id="81uJ3xP0oXnDN0aBoqcu">
    <mxGraphModel dx="911" dy="727" grid="1" gridSize="10" guides="1" tooltips="1" connect="1" arrows="1" fold="1" page="0" pageScale="1" pageWidth="827" pageHeight="1169" math="0" shadow="0">
      <root>
        <mxCell id="0" />
        <mxCell id="1" parent="0" />
        <mxCell id="T5GcdYSXyPIhgKT8PLB_-7" style="edgeStyle=none;curved=1;rounded=0;orthogonalLoop=1;jettySize=auto;html=1;entryX=0.5;entryY=0;entryDx=0;entryDy=0;fontSize=12;startSize=8;endSize=8;" edge="1" parent="1" source="T5GcdYSXyPIhgKT8PLB_-1" target="T5GcdYSXyPIhgKT8PLB_-5">
          <mxGeometry relative="1" as="geometry" />
        </mxCell>
        <mxCell id="T5GcdYSXyPIhgKT8PLB_-1" value="s_errorTemperatureNotIncreased" style="text;html=1;align=center;verticalAlign=middle;whiteSpace=wrap;rounded=0;fontSize=16;" vertex="1" parent="1">
          <mxGeometry x="-80" y="130" width="240" height="20" as="geometry" />
        </mxCell>
        <mxCell id="T5GcdYSXyPIhgKT8PLB_-4" style="edgeStyle=none;curved=1;rounded=0;orthogonalLoop=1;jettySize=auto;html=1;entryX=0;entryY=0.5;entryDx=0;entryDy=0;fontSize=12;startSize=8;endSize=8;" edge="1" parent="1" source="T5GcdYSXyPIhgKT8PLB_-2" target="T5GcdYSXyPIhgKT8PLB_-3">
          <mxGeometry relative="1" as="geometry" />
        </mxCell>
        <mxCell id="T5GcdYSXyPIhgKT8PLB_-2" value="s_lid" style="text;html=1;align=center;verticalAlign=middle;whiteSpace=wrap;rounded=0;fontSize=16;" vertex="1" parent="1">
          <mxGeometry x="120" y="210" width="40" height="20" as="geometry" />
        </mxCell>
        <mxCell id="T5GcdYSXyPIhgKT8PLB_-8" style="edgeStyle=none;curved=1;rounded=0;orthogonalLoop=1;jettySize=auto;html=1;entryX=0.5;entryY=0;entryDx=0;entryDy=0;fontSize=12;startSize=8;endSize=8;" edge="1" parent="1" source="T5GcdYSXyPIhgKT8PLB_-3" target="T5GcdYSXyPIhgKT8PLB_-6">
          <mxGeometry relative="1" as="geometry" />
        </mxCell>
        <mxCell id="T5GcdYSXyPIhgKT8PLB_-3" value="filter&lt;div&gt;=== Close&lt;/div&gt;" style="rhombus;whiteSpace=wrap;html=1;" vertex="1" parent="1">
          <mxGeometry x="200" y="200" width="80" height="40" as="geometry" />
        </mxCell>
        <mxCell id="T5GcdYSXyPIhgKT8PLB_-5" value="map to true" style="shape=offPageConnector;whiteSpace=wrap;html=1;direction=north;" vertex="1" parent="1">
          <mxGeometry x="320" y="120" width="80" height="40" as="geometry" />
        </mxCell>
        <mxCell id="T5GcdYSXyPIhgKT8PLB_-6" value="map to false" style="shape=offPageConnector;whiteSpace=wrap;html=1;direction=north;" vertex="1" parent="1">
          <mxGeometry x="320" y="200" width="80" height="40" as="geometry" />
        </mxCell>
        <mxCell id="T5GcdYSXyPIhgKT8PLB_-13" style="edgeStyle=none;curved=1;rounded=0;orthogonalLoop=1;jettySize=auto;html=1;fontSize=12;startSize=8;endSize=8;" edge="1" parent="1" source="T5GcdYSXyPIhgKT8PLB_-9">
          <mxGeometry relative="1" as="geometry">
            <mxPoint x="841.1594556725544" y="180" as="targetPoint" />
          </mxGeometry>
        </mxCell>
        <mxCell id="T5GcdYSXyPIhgKT8PLB_-9" value="orElse" style="shape=trapezoid;perimeter=trapezoidPerimeter;whiteSpace=wrap;html=1;fixedSize=1;direction=south;" vertex="1" parent="1">
          <mxGeometry x="440" y="120" width="60" height="120" as="geometry" />
        </mxCell>
        <mxCell id="T5GcdYSXyPIhgKT8PLB_-10" style="edgeStyle=none;curved=1;rounded=0;orthogonalLoop=1;jettySize=auto;html=1;exitX=0.5;exitY=1;exitDx=0;exitDy=0;entryX=0.166;entryY=1;entryDx=0;entryDy=0;entryPerimeter=0;fontSize=12;startSize=8;endSize=8;" edge="1" parent="1" source="T5GcdYSXyPIhgKT8PLB_-5" target="T5GcdYSXyPIhgKT8PLB_-9">
          <mxGeometry relative="1" as="geometry" />
        </mxCell>
        <mxCell id="T5GcdYSXyPIhgKT8PLB_-11" style="edgeStyle=none;curved=1;rounded=0;orthogonalLoop=1;jettySize=auto;html=1;exitX=0.5;exitY=1;exitDx=0;exitDy=0;entryX=0.833;entryY=1;entryDx=0;entryDy=0;entryPerimeter=0;fontSize=12;startSize=8;endSize=8;" edge="1" parent="1" source="T5GcdYSXyPIhgKT8PLB_-6" target="T5GcdYSXyPIhgKT8PLB_-9">
          <mxGeometry relative="1" as="geometry" />
        </mxCell>
        <mxCell id="T5GcdYSXyPIhgKT8PLB_-12" value="errorTemperatureNotIncreasedUpdate" style="text;html=1;align=center;verticalAlign=middle;whiteSpace=wrap;rounded=0;fontSize=16;" vertex="1" parent="1">
          <mxGeometry x="530" y="160" width="270" height="20" as="geometry" />
        </mxCell>
        <mxCell id="T5GcdYSXyPIhgKT8PLB_-14" value="1" style="text;html=1;align=center;verticalAlign=middle;whiteSpace=wrap;rounded=0;fontSize=16;" vertex="1" parent="1">
          <mxGeometry x="420" y="120" width="20" height="20" as="geometry" />
        </mxCell>
        <mxCell id="T5GcdYSXyPIhgKT8PLB_-15" value="2" style="text;html=1;align=center;verticalAlign=middle;whiteSpace=wrap;rounded=0;fontSize=16;" vertex="1" parent="1">
          <mxGeometry x="420" y="200" width="20" height="20" as="geometry" />
        </mxCell>
      </root>
    </mxGraphModel>
  </diagram>
</mxfile>
